<mxfile host="app.diagrams.net" modified="2024-05-23T16:10:47.461Z" agent="Mozilla/5.0 (Windows NT 10.0; Win64; x64) AppleWebKit/537.36 (KHTML, like Gecko) Chrome/124.0.0.0 Safari/537.36" etag="c9gnzTraF4QJlcmhnfnB" version="24.4.6" type="device">
  <diagram name="Pagina-1" id="PByzP8--uvlTxictNmsl">
    <mxGraphModel dx="1434" dy="772" grid="1" gridSize="10" guides="1" tooltips="1" connect="1" arrows="1" fold="1" page="1" pageScale="1" pageWidth="827" pageHeight="1169" math="0" shadow="0">
      <root>
        <mxCell id="0" />
        <mxCell id="1" parent="0" />
        <mxCell id="i6higVOx973mFYhWGJzE-11" style="edgeStyle=orthogonalEdgeStyle;rounded=0;orthogonalLoop=1;jettySize=auto;html=1;exitX=1;exitY=0.5;exitDx=0;exitDy=0;" edge="1" parent="1" source="i6higVOx973mFYhWGJzE-1">
          <mxGeometry relative="1" as="geometry">
            <mxPoint x="240" y="190" as="targetPoint" />
          </mxGeometry>
        </mxCell>
        <mxCell id="i6higVOx973mFYhWGJzE-1" value="Badges" style="rounded=0;whiteSpace=wrap;html=1;" vertex="1" parent="1">
          <mxGeometry x="80" y="160" width="130" height="60" as="geometry" />
        </mxCell>
        <mxCell id="i6higVOx973mFYhWGJzE-12" style="edgeStyle=orthogonalEdgeStyle;rounded=0;orthogonalLoop=1;jettySize=auto;html=1;exitX=1;exitY=0.5;exitDx=0;exitDy=0;" edge="1" parent="1" source="i6higVOx973mFYhWGJzE-2">
          <mxGeometry relative="1" as="geometry">
            <mxPoint x="240" y="270" as="targetPoint" />
          </mxGeometry>
        </mxCell>
        <mxCell id="i6higVOx973mFYhWGJzE-2" value="Levels" style="rounded=0;whiteSpace=wrap;html=1;" vertex="1" parent="1">
          <mxGeometry x="80" y="240" width="130" height="60" as="geometry" />
        </mxCell>
        <mxCell id="i6higVOx973mFYhWGJzE-13" style="edgeStyle=orthogonalEdgeStyle;rounded=0;orthogonalLoop=1;jettySize=auto;html=1;exitX=1;exitY=0.5;exitDx=0;exitDy=0;" edge="1" parent="1" source="i6higVOx973mFYhWGJzE-3">
          <mxGeometry relative="1" as="geometry">
            <mxPoint x="240" y="350" as="targetPoint" />
          </mxGeometry>
        </mxCell>
        <mxCell id="i6higVOx973mFYhWGJzE-3" value="Points" style="rounded=0;whiteSpace=wrap;html=1;" vertex="1" parent="1">
          <mxGeometry x="80" y="320" width="130" height="60" as="geometry" />
        </mxCell>
        <mxCell id="i6higVOx973mFYhWGJzE-14" style="edgeStyle=orthogonalEdgeStyle;rounded=0;orthogonalLoop=1;jettySize=auto;html=1;exitX=1;exitY=0.5;exitDx=0;exitDy=0;" edge="1" parent="1" source="i6higVOx973mFYhWGJzE-4">
          <mxGeometry relative="1" as="geometry">
            <mxPoint x="240" y="430" as="targetPoint" />
          </mxGeometry>
        </mxCell>
        <mxCell id="i6higVOx973mFYhWGJzE-4" value="Challenge" style="rounded=0;whiteSpace=wrap;html=1;" vertex="1" parent="1">
          <mxGeometry x="80" y="400" width="130" height="60" as="geometry" />
        </mxCell>
        <mxCell id="i6higVOx973mFYhWGJzE-16" style="edgeStyle=orthogonalEdgeStyle;rounded=0;orthogonalLoop=1;jettySize=auto;html=1;exitX=1;exitY=0.5;exitDx=0;exitDy=0;entryX=0;entryY=0.5;entryDx=0;entryDy=0;" edge="1" parent="1" source="i6higVOx973mFYhWGJzE-5" target="i6higVOx973mFYhWGJzE-7">
          <mxGeometry relative="1" as="geometry" />
        </mxCell>
        <mxCell id="i6higVOx973mFYhWGJzE-5" value="Motivation" style="rounded=0;whiteSpace=wrap;html=1;" vertex="1" parent="1">
          <mxGeometry x="310" y="280" width="130" height="60" as="geometry" />
        </mxCell>
        <mxCell id="i6higVOx973mFYhWGJzE-6" value="Feedback" style="rounded=0;whiteSpace=wrap;html=1;" vertex="1" parent="1">
          <mxGeometry x="520" y="370" width="130" height="60" as="geometry" />
        </mxCell>
        <mxCell id="i6higVOx973mFYhWGJzE-7" value="Rewards" style="rounded=0;whiteSpace=wrap;html=1;" vertex="1" parent="1">
          <mxGeometry x="520" y="190" width="130" height="60" as="geometry" />
        </mxCell>
        <mxCell id="i6higVOx973mFYhWGJzE-10" value="" style="endArrow=none;html=1;rounded=0;" edge="1" parent="1">
          <mxGeometry width="50" height="50" relative="1" as="geometry">
            <mxPoint x="240" y="460" as="sourcePoint" />
            <mxPoint x="240" y="160" as="targetPoint" />
          </mxGeometry>
        </mxCell>
        <mxCell id="i6higVOx973mFYhWGJzE-15" value="" style="endArrow=classic;html=1;rounded=0;entryX=0;entryY=0.5;entryDx=0;entryDy=0;" edge="1" parent="1" target="i6higVOx973mFYhWGJzE-5">
          <mxGeometry width="50" height="50" relative="1" as="geometry">
            <mxPoint x="240" y="310" as="sourcePoint" />
            <mxPoint x="440" y="370" as="targetPoint" />
          </mxGeometry>
        </mxCell>
        <mxCell id="i6higVOx973mFYhWGJzE-17" style="edgeStyle=orthogonalEdgeStyle;rounded=0;orthogonalLoop=1;jettySize=auto;html=1;exitX=1;exitY=0.5;exitDx=0;exitDy=0;entryX=0.008;entryY=0.617;entryDx=0;entryDy=0;entryPerimeter=0;" edge="1" parent="1" source="i6higVOx973mFYhWGJzE-5" target="i6higVOx973mFYhWGJzE-6">
          <mxGeometry relative="1" as="geometry" />
        </mxCell>
      </root>
    </mxGraphModel>
  </diagram>
</mxfile>
